<?xml version="1.0" standalone="no"?>
<!DOCTYPE svg PUBLIC "-//W3C//DTD SVG 20010904//EN"
 "http://www.w3.org/TR/2001/REC-SVG-20010904/DTD/svg10.dtd">
<svg version="1.0" xmlns="http://www.w3.org/2000/svg"
 width="500.000000pt" height="500.000000pt" viewBox="0 0 500.000000 500.000000"
 preserveAspectRatio="xMidYMid meet">

<g transform="translate(0.000000,500.000000) scale(0.100000,-0.100000)"
fill="#000000" stroke="none">
<path d="M2315 4994 c-16 -2 -73 -9 -125 -15 -433 -49 -871 -232 -1240 -517
-109 -85 -327 -303 -412 -412 -286 -370 -453 -770 -520 -1245 -7 -50 -13 -185
-13 -305 0 -352 54 -632 181 -945 127 -310 305 -577 549 -820 399 -400 878
-635 1460 -717 117 -17 493 -17 610 0 475 67 875 234 1245 520 109 85 327 303
412 412 286 370 453 770 520 1245 17 117 17 493 0 610 -67 475 -234 875 -520
1245 -85 109 -303 327 -412 412 -365 282 -765 451 -1230 518 -77 11 -451 22
-505 14z m870 -894 c223 -57 406 -204 506 -405 151 -306 99 -653 -135 -897
l-55 -58 85 0 84 0 0 -675 0 -675 -320 0 -319 0 27 52 c21 42 27 66 27 118 -1
112 -60 189 -178 232 l-58 21 36 13 c206 70 238 336 55 454 -84 54 -133 60
-467 60 l-303 0 0 -475 0 -475 -238 0 -238 0 -19 -118 -20 -117 -270 -58 -270
-58 -40 -46 -41 -46 -199 -38 c-110 -21 -202 -36 -204 -33 -9 9 -31 208 -23
215 4 3 94 23 200 43 l194 37 45 -26 c25 -14 55 -25 67 -25 11 0 125 20 251
44 l230 43 11 64 c7 35 12 76 13 92 l1 27 -105 0 -105 0 0 405 0 405 -57 0
c-52 0 -59 -3 -89 -35 -57 -63 -65 -56 -159 138 l-83 172 55 3 c41 2 74 -4
137 -27 56 -21 101 -31 139 -31 l57 0 0 40 c0 29 -4 40 -15 40 -30 0 -141 53
-201 95 -112 80 -197 196 -241 329 -34 104 -38 276 -9 371 86 286 335 475 625
475 152 0 285 -46 398 -136 55 -45 82 -73 148 -156 18 -23 23 -25 63 -16 24 5
45 15 46 21 41 159 83 248 166 350 151 188 355 285 601 286 85 1 137 -4 194
-19z m1213 -2090 l-3 -271 -198 121 -198 120 -154 0 -155 0 0 300 0 300 158 0
157 0 195 119 195 119 3 -269 c1 -148 1 -391 0 -539z m-1607 92 c24 -26 29
-41 29 -82 0 -41 -5 -56 -29 -82 l-29 -33 -176 -3 -176 -3 0 121 0 121 176 -3
176 -3 29 -33z m-6 -396 c65 -28 86 -119 39 -175 -36 -43 -77 -51 -256 -51
l-158 0 0 120 0 120 170 0 c125 0 180 -4 205 -14z"/>
<path d="M2837 3726 c-283 -117 -333 -497 -90 -682 141 -107 342 -105 482 6
241 190 181 570 -107 680 -78 29 -207 28 -285 -4z m153 -106 c11 -11 20 -31
20 -45 0 -30 -32 -65 -60 -65 -24 0 -70 42 -70 63 0 8 9 26 21 41 25 31 61 34
89 6z m197 -122 c28 -26 30 -61 3 -88 -26 -26 -64 -25 -90 2 -26 28 -25 56 2
85 27 29 55 29 85 1z m-353 -49 c15 -12 26 -30 26 -45 0 -31 -33 -64 -65 -64
-30 0 -65 32 -65 60 0 24 42 70 63 70 8 0 26 -9 41 -21z m331 -175 c10 -11 15
-29 13 -53 -2 -28 -9 -39 -32 -50 -25 -12 -31 -11 -55 6 -32 24 -39 68 -15 94
21 23 67 25 89 3z m-225 -56 c13 -25 13 -31 0 -54 -19 -34 -50 -46 -81 -30
-35 17 -46 58 -25 91 24 37 83 33 106 -7z"/>
<path d="M1459 3452 c-219 -89 -276 -362 -111 -525 67 -66 129 -92 222 -92 65
0 84 4 143 33 122 60 184 169 175 306 -8 118 -70 211 -180 267 -60 31 -185 37
-249 11z m115 -88 c24 -24 20 -61 -9 -80 -23 -15 -27 -15 -50 0 -29 19 -32 51
-8 78 20 22 46 23 67 2z m157 -94 c22 -12 26 -59 7 -78 -19 -19 -66 -15 -78 7
-14 27 -13 47 6 65 18 19 38 20 65 6z m-276 -50 c27 -29 10 -74 -28 -78 -36
-4 -57 13 -57 49 0 47 53 65 85 29z m256 -130 c28 -16 25 -65 -5 -85 -51 -34
-103 39 -56 77 26 21 34 22 61 8z m-173 -72 c2 -15 -5 -31 -18 -43 -20 -18
-24 -18 -48 -4 -20 11 -27 23 -27 44 0 61 86 64 93 3z"/>
<path d="M2231 2937 c-39 -11 -45 -17 -62 -59 -10 -26 -30 -66 -44 -88 -14
-22 -25 -42 -25 -45 0 -3 88 -5 195 -5 l196 0 -51 51 c-28 28 -67 75 -87 105
-39 59 -46 61 -122 41z"/>
<path d="M3392 1637 c-28 -29 -28 -57 -1 -91 39 -50 119 -20 119 44 0 63 -75
93 -118 47z"/>
</g>
</svg>
